<svg xmlns="http://www.w3.org/2000/svg" xmlns:xlink="http://www.w3.org/1999/xlink" id="Layer_1" x="0px" y="0px" viewBox="0 0 1079.4 315.3" style="enable-background:new 0 0 1079.4 315.3;" xml:space="preserve">
<style type="text/css">
	.st0{fill:#00638F;}
	.st1{fill:#0092BF;}
	.st2{fill:#00496E;}
	.st3{fill:#5BACCC;}
	.st4{fill:#B3B3B3;}
</style>
<g>
	<path class="st0" d="M557.7,146.8c0.3,0,0.6,0.1,1,0.2c0.3,0.1,0.6,0.3,0.9,0.6l5.4,5.7c-2.4,3.1-5.4,5.4-8.9,7   c-3.6,1.6-7.8,2.4-12.7,2.4c-4.5,0-8.5-0.8-12.1-2.3c-3.6-1.5-6.6-3.6-9-6.3c-2.5-2.7-4.4-5.9-5.7-9.6c-1.3-3.7-2-7.7-2-12   c0-4.4,0.7-8.4,2.1-12.1c1.4-3.7,3.4-6.9,6-9.5c2.6-2.7,5.7-4.8,9.3-6.2c3.6-1.5,7.6-2.2,12-2.2c2.2,0,4.3,0.2,6.3,0.6   c2,0.4,3.8,0.9,5.5,1.6c1.7,0.7,3.3,1.5,4.7,2.5c1.4,1,2.7,2,3.8,3.2l-4.6,6.2c-0.3,0.4-0.6,0.7-1.1,1c-0.4,0.3-1,0.5-1.7,0.5   c-0.5,0-0.9-0.1-1.4-0.3c-0.4-0.2-0.9-0.5-1.4-0.8c-0.5-0.3-1-0.6-1.6-1c-0.6-0.4-1.3-0.7-2.1-1c-0.8-0.3-1.7-0.6-2.8-0.8   c-1.1-0.2-2.3-0.3-3.7-0.3c-2.3,0-4.3,0.4-6.2,1.3c-1.9,0.8-3.5,2.1-4.9,3.7c-1.4,1.6-2.4,3.6-3.2,5.9c-0.7,2.3-1.1,5-1.1,8   c0,3,0.4,5.7,1.2,8.1c0.8,2.3,1.9,4.3,3.4,5.9c1.4,1.6,3.1,2.8,5,3.7c1.9,0.8,3.9,1.3,6.1,1.3c1.2,0,2.4-0.1,3.4-0.2   c1-0.1,2-0.3,2.9-0.6c0.9-0.3,1.7-0.7,2.5-1.1c0.8-0.5,1.6-1.1,2.4-1.8c0.3-0.3,0.7-0.5,1.1-0.7   C556.9,146.9,557.3,146.8,557.7,146.8z"></path>
	<path class="st0" d="M588,119.4c3.2,0,6.1,0.5,8.7,1.5c2.6,1,4.9,2.4,6.7,4.3c1.9,1.9,3.3,4.1,4.4,6.8c1,2.7,1.6,5.7,1.6,9   c0,3.3-0.5,6.4-1.6,9.1c-1,2.7-2.5,5-4.4,6.8c-1.9,1.9-4.1,3.3-6.7,4.3c-2.6,1-5.5,1.5-8.7,1.5c-3.2,0-6.1-0.5-8.8-1.5   c-2.6-1-4.9-2.5-6.8-4.3c-1.9-1.9-3.4-4.2-4.4-6.8c-1-2.7-1.6-5.7-1.6-9.1c0-3.3,0.5-6.3,1.6-9c1-2.7,2.5-4.9,4.4-6.8   c1.9-1.9,4.2-3.3,6.8-4.3C581.9,119.9,584.8,119.4,588,119.4z M588,153.4c2.9,0,5-1,6.4-3.1c1.4-2,2-5.1,2-9.3c0-4.2-0.7-7.3-2-9.3   c-1.4-2-3.5-3-6.4-3c-3,0-5.1,1-6.5,3c-1.4,2-2.1,5.1-2.1,9.3c0,4.2,0.7,7.3,2.1,9.3C582.9,152.3,585.1,153.4,588,153.4z"></path>
	<path class="st0" d="M615.8,162v-42h7.8c1.6,0,2.6,0.7,3.1,2.1l0.7,2.3c0.7-0.7,1.4-1.4,2.2-2c0.8-0.6,1.6-1.1,2.5-1.6   c0.9-0.4,1.8-0.8,2.8-1.1c1-0.3,2.1-0.4,3.3-0.4c2.5,0,4.6,0.7,6.3,2c1.7,1.3,2.9,3.1,3.8,5.2c0.7-1.3,1.6-2.4,2.6-3.3   c1-0.9,2.1-1.7,3.3-2.2c1.2-0.6,2.4-1,3.7-1.3c1.3-0.3,2.6-0.4,3.9-0.4c2.4,0,4.5,0.4,6.4,1.1c1.9,0.7,3.4,1.8,4.7,3.1   c1.3,1.4,2.2,3,2.9,5c0.6,2,1,4.2,1,6.7V162h-12.6v-26.7c0-4.3-1.9-6.5-5.6-6.5c-1.7,0-3.1,0.6-4.2,1.7c-1.1,1.1-1.7,2.7-1.7,4.8   V162H640v-26.7c0-2.4-0.5-4.1-1.4-5.1c-0.9-1-2.3-1.5-4.2-1.5c-1.1,0-2.2,0.3-3.2,0.8c-1,0.5-2,1.2-2.9,2.1V162H615.8z"></path>
	<path class="st0" d="M687,162v-33.4l-2.8-0.6c-0.9-0.2-1.7-0.6-2.3-1c-0.6-0.5-0.9-1.1-0.9-2v-4.9h5.9v-2.4c0-2.4,0.4-4.6,1.2-6.5   c0.8-1.9,1.9-3.6,3.3-5c1.4-1.4,3.2-2.4,5.3-3.2c2.1-0.8,4.4-1.1,7.1-1.1c1,0,2,0.1,2.8,0.2c0.9,0.1,1.8,0.3,2.7,0.6l-0.2,6.1   c0,0.4-0.1,0.8-0.3,1.1c-0.2,0.3-0.4,0.5-0.8,0.7c-0.3,0.2-0.6,0.3-1,0.4c-0.4,0.1-0.7,0.1-1.1,0.1c-1.1,0-2.1,0.1-3,0.3   c-0.9,0.2-1.6,0.6-2.2,1.2c-0.6,0.6-1,1.3-1.3,2.2c-0.3,0.9-0.4,2-0.4,3.4v2h9.8v8.6h-9.4V162H687z"></path>
	<path class="st0" d="M732.1,119.4c3.2,0,6.1,0.5,8.7,1.5c2.6,1,4.9,2.4,6.7,4.3c1.9,1.9,3.3,4.1,4.4,6.8c1,2.7,1.6,5.7,1.6,9   c0,3.3-0.5,6.4-1.6,9.1c-1,2.7-2.5,5-4.4,6.8c-1.9,1.9-4.1,3.3-6.7,4.3c-2.6,1-5.5,1.5-8.7,1.5c-3.2,0-6.1-0.5-8.8-1.5   c-2.6-1-4.9-2.5-6.8-4.3c-1.9-1.9-3.4-4.2-4.4-6.8c-1-2.7-1.6-5.7-1.6-9.1c0-3.3,0.5-6.3,1.6-9c1-2.7,2.5-4.9,4.4-6.8   c1.9-1.9,4.2-3.3,6.8-4.3C725.9,119.9,728.9,119.4,732.1,119.4z M732.1,153.4c2.9,0,5-1,6.4-3.1c1.4-2,2-5.1,2-9.3   c0-4.2-0.7-7.3-2-9.3c-1.4-2-3.5-3-6.4-3c-3,0-5.1,1-6.5,3c-1.4,2-2.1,5.1-2.1,9.3c0,4.2,0.7,7.3,2.1,9.3   C726.9,152.3,729.1,153.4,732.1,153.4z"></path>
	<path class="st0" d="M893.5,103v59h-13.8v-25h-24v25H842v-59h13.8v24.7h24V103H893.5z"></path>
	<path class="st0" d="M912.6,143.3c0.4,3.5,1.5,6.1,3.2,7.6c1.7,1.6,4,2.4,6.7,2.4c1.5,0,2.7-0.2,3.8-0.5c1.1-0.4,2-0.7,2.8-1.2   c0.8-0.4,1.6-0.8,2.3-1.2c0.7-0.4,1.4-0.5,2.2-0.5c1,0,1.8,0.4,2.3,1.1l3.6,4.5c-1.3,1.5-2.7,2.7-4.2,3.6c-1.5,0.9-3,1.7-4.6,2.2   c-1.6,0.5-3.2,0.9-4.7,1.1c-1.6,0.2-3.1,0.3-4.5,0.3c-2.9,0-5.7-0.5-8.3-1.4c-2.6-1-4.8-2.4-6.8-4.3c-1.9-1.9-3.5-4.2-4.6-7   c-1.1-2.8-1.7-6.1-1.7-9.8c0-2.8,0.5-5.5,1.4-8c1-2.5,2.3-4.7,4.1-6.6c1.8-1.9,4-3.4,6.5-4.5c2.6-1.1,5.4-1.7,8.7-1.7   c2.8,0,5.3,0.4,7.6,1.3c2.3,0.9,4.3,2.1,6,3.8c1.7,1.6,3,3.7,3.9,6.1c0.9,2.4,1.4,5.1,1.4,8.1c0,0.9,0,1.7-0.1,2.3   c-0.1,0.6-0.2,1.1-0.4,1.4c-0.2,0.4-0.5,0.6-0.9,0.7c-0.4,0.1-0.8,0.2-1.4,0.2H912.6z M928.4,136c0-1-0.1-2-0.4-2.9   c-0.3-0.9-0.7-1.8-1.3-2.5c-0.6-0.7-1.3-1.3-2.3-1.8c-0.9-0.5-2.1-0.7-3.4-0.7c-2.4,0-4.2,0.7-5.6,2c-1.4,1.4-2.2,3.3-2.7,5.9   H928.4z"></path>
	<path class="st0" d="M945,125.9c2.5-2.2,5.4-3.9,8.4-5c3.1-1.1,6.4-1.6,9.9-1.6c2.5,0,4.8,0.4,6.9,1.2c2,0.8,3.8,2,5.2,3.4   c1.4,1.5,2.5,3.2,3.3,5.2c0.8,2,1.1,4.2,1.1,6.6V162h-5.8c-1.2,0-2.1-0.2-2.7-0.5c-0.6-0.3-1.1-1-1.5-2l-0.9-2.3   c-1.1,0.9-2.1,1.7-3,2.4c-1,0.7-2,1.2-3,1.7c-1,0.5-2.1,0.8-3.3,1.1c-1.2,0.2-2.5,0.3-3.9,0.3c-1.9,0-3.7-0.3-5.2-0.7   c-1.6-0.5-2.9-1.2-4-2.2c-1.1-1-1.9-2.2-2.5-3.6c-0.6-1.4-0.9-3.1-0.9-5c0-1.5,0.4-3,1.1-4.6c0.8-1.6,2.1-3,3.9-4.3   c1.9-1.3,4.4-2.4,7.5-3.2c3.2-0.9,7.1-1.4,12-1.5v-1.8c0-2.5-0.5-4.2-1.5-5.3c-1-1.1-2.4-1.6-4.3-1.6c-1.5,0-2.7,0.2-3.6,0.5   c-0.9,0.3-1.8,0.7-2.5,1.1c-0.7,0.4-1.5,0.8-2.2,1.1c-0.7,0.3-1.5,0.5-2.5,0.5c-0.9,0-1.6-0.2-2.2-0.6c-0.6-0.4-1.1-0.9-1.5-1.5   L945,125.9z M967.6,144.9c-2.5,0.1-4.6,0.3-6.2,0.6c-1.6,0.3-2.9,0.7-3.8,1.2c-0.9,0.5-1.6,1-2,1.7c-0.4,0.6-0.5,1.3-0.5,2   c0,1.4,0.4,2.4,1.2,3c0.8,0.6,1.9,0.9,3.4,0.9c1.6,0,3-0.3,4.3-0.9c1.2-0.6,2.4-1.5,3.7-2.8V144.9z"></path>
	<path class="st0" d="M1000.4,101.4V162h-12.6v-60.7H1000.4z"></path>
	<path class="st0" d="M1024,162.7c-2,0-3.8-0.3-5.3-0.9c-1.5-0.6-2.8-1.4-3.8-2.5c-1-1.1-1.8-2.4-2.4-3.9c-0.5-1.5-0.8-3.2-0.8-5.1   v-21.7h-3.6c-0.6,0-1.2-0.2-1.7-0.6c-0.5-0.4-0.7-1-0.7-1.8v-4.9l6.7-1.3l2.5-10.3c0.3-1.3,1.2-1.9,2.8-1.9h6.6v12.3h10.4v8.6   h-10.4v20.9c0,1,0.2,1.8,0.7,2.4c0.5,0.6,1.2,1,2,1c0.5,0,0.8,0,1.2-0.1c0.3-0.1,0.6-0.2,0.8-0.3s0.4-0.2,0.6-0.3   c0.2-0.1,0.4-0.1,0.7-0.1c0.4,0,0.7,0.1,0.9,0.3c0.2,0.2,0.5,0.5,0.7,0.8l3.8,6c-1.6,1.2-3.4,2.1-5.5,2.7S1026.1,162.7,1024,162.7z   "></path>
	<path class="st0" d="M1052.6,123.7c1.5-1.3,3.2-2.3,4.9-3.1c1.8-0.8,3.9-1.2,6.3-1.2c2.3,0,4.3,0.4,6.1,1.2   c1.8,0.8,3.3,1.9,4.5,3.3c1.2,1.4,2.1,3.1,2.8,5.1c0.6,2,0.9,4.1,0.9,6.4V162h-12.6v-26.7c0-2.1-0.5-3.7-1.4-4.8   c-0.9-1.1-2.3-1.7-4.2-1.7c-1.4,0-2.7,0.3-3.9,0.9c-1.2,0.6-2.4,1.4-3.5,2.4v30H1040v-60.7h12.6V123.7z"></path>
</g>
<g>
	<g>
		<path class="st1" d="M227.8,192.5c1.2,0,2.3,0.5,3.3,1.4l8.9,9.6c-4.9,6.1-11,10.8-18.2,14c-7.2,3.2-15.8,4.9-25.9,4.9    c-9,0-17.1-1.5-24.3-4.6c-7.2-3.1-13.3-7.3-18.4-12.8c-5.1-5.5-9-12-11.7-19.6c-2.7-7.6-4.1-15.9-4.1-24.9c0-9.1,1.5-17.5,4.4-25    c2.9-7.6,7-14.1,12.3-19.6c5.3-5.5,11.6-9.7,18.9-12.8c7.3-3,15.4-4.6,24.3-4.6c8.8,0,16.7,1.5,23.5,4.4    c6.8,2.9,12.7,6.7,17.5,11.4l-7.5,10.5c-0.4,0.7-1,1.3-1.7,1.8c-0.7,0.5-1.7,0.8-2.9,0.8c-0.8,0-1.7-0.2-2.6-0.7    c-0.9-0.5-1.9-1.1-2.9-1.8c-1.1-0.7-2.3-1.5-3.7-2.3c-1.4-0.8-3-1.6-4.9-2.3c-1.8-0.7-4-1.3-6.4-1.8c-2.4-0.5-5.2-0.7-8.4-0.7    c-5.4,0-10.4,1-14.9,2.9c-4.5,1.9-8.4,4.7-11.6,8.4c-3.2,3.7-5.8,8.1-7.5,13.4c-1.8,5.3-2.7,11.3-2.7,18.1c0,6.8,1,12.9,2.9,18.2    c1.9,5.3,4.5,9.8,7.8,13.4c3.3,3.6,7.2,6.4,11.7,8.3c4.5,1.9,9.3,2.9,14.4,2.9c3.1,0,5.9-0.2,8.3-0.5c2.5-0.3,4.8-0.9,6.9-1.6    c2.1-0.7,4.1-1.7,6-2.8c1.9-1.1,3.7-2.6,5.6-4.2c0.6-0.5,1.1-0.9,1.8-1.2C226.4,192.7,227.1,192.5,227.8,192.5z"></path>
		<path class="st1" d="M357.6,99.9v121.2H335v-53h-56.9v53h-22.6V99.9h22.6V152H335V99.9H357.6z"></path>
		<path class="st1" d="M449.2,121.9c-0.7,1.2-1.4,2-2.1,2.6c-0.8,0.5-1.7,0.8-2.8,0.8c-1.2,0-2.4-0.4-3.8-1.3    c-1.4-0.9-3-1.8-4.9-2.9c-1.9-1.1-4.1-2-6.7-2.9c-2.5-0.9-5.5-1.3-9-1.3c-3.1,0-5.9,0.4-8.2,1.1c-2.3,0.8-4.3,1.8-5.9,3.1    c-1.6,1.3-2.8,2.9-3.6,4.8c-0.8,1.9-1.2,3.9-1.2,6.2c0,2.9,0.8,5.2,2.4,7.1c1.6,1.9,3.7,3.5,6.3,4.9c2.6,1.3,5.6,2.5,9,3.6    c3.4,1.1,6.8,2.2,10.3,3.4c3.5,1.2,7,2.6,10.3,4.2c3.4,1.6,6.3,3.6,9,6c2.6,2.4,4.7,5.4,6.3,8.9c1.6,3.5,2.4,7.8,2.4,12.8    c0,5.5-0.9,10.6-2.8,15.4c-1.9,4.8-4.6,8.9-8.2,12.5c-3.6,3.5-8,6.3-13.2,8.4c-5.2,2-11.2,3.1-17.9,3.1c-3.9,0-7.7-0.4-11.4-1.1    c-3.7-0.8-7.3-1.8-10.8-3.2c-3.4-1.4-6.7-3.1-9.7-5c-3-2-5.7-4.1-8-6.5l6.6-10.8c0.6-0.8,1.3-1.4,2.2-2c0.9-0.5,1.8-0.8,2.9-0.8    c1.4,0,2.9,0.6,4.5,1.7c1.6,1.1,3.5,2.4,5.8,3.8c2.2,1.4,4.8,2.7,7.8,3.8c3,1.1,6.6,1.7,10.8,1.7c6.4,0,11.4-1.5,14.9-4.6    c3.5-3,5.3-7.4,5.3-13.1c0-3.2-0.8-5.8-2.4-7.8c-1.6-2-3.7-3.7-6.3-5.1c-2.6-1.4-5.6-2.5-9-3.5c-3.4-0.9-6.8-2-10.2-3.1    c-3.5-1.1-6.9-2.5-10.2-4c-3.4-1.6-6.3-3.6-9-6.1c-2.6-2.5-4.7-5.7-6.3-9.4s-2.4-8.4-2.4-14c0-4.4,0.9-8.7,2.6-12.9    c1.8-4.2,4.3-7.9,7.7-11.2c3.4-3.2,7.5-5.8,12.4-7.8c4.9-2,10.6-2.9,16.9-2.9c7.2,0,13.8,1.1,19.8,3.4c6,2.2,11.2,5.4,15.4,9.4    L449.2,121.9z"></path>
	</g>
	<g>
		<path class="st2" d="M286.4,246.4c-0.7,0.7-1.8,0.7-2.5,0c-0.7-0.7-0.7-1.8,0-2.5c0.7-0.7,1.8-0.7,2.5,0    C287.1,244.6,287.1,245.7,286.4,246.4z"></path>
		<path class="st2" d="M265,262.9c-1.5,1.5-4,1.5-5.5,0c-1.5-1.5-1.5-4,0-5.5c1.5-1.5,4-1.5,5.5,0    C266.6,258.9,266.5,261.4,265,262.9z"></path>
		<path class="st2" d="M240.3,273.8c-2.1,2.1-5.6,2.1-7.7-0.1c-2.1-2.2-2.1-5.6,0.1-7.7c2.1-2.1,5.6-2.1,7.7,0.1    C242.4,268.2,242.4,271.6,240.3,273.8z"></path>
		<path class="st2" d="M213.7,278.4c-2.6,2.6-6.9,2.6-9.4-0.1c-2.6-2.6-2.6-6.9,0.1-9.4c2.6-2.6,6.9-2.6,9.4,0.1    C216.3,271.6,216.3,275.8,213.7,278.4z"></path>
		<path class="st2" d="M186.7,276.5c-3,2.9-7.7,2.9-10.6-0.1c-2.9-3-2.9-7.7,0.1-10.6c3-2.9,7.7-2.9,10.6,0.1    C189.7,268.9,189.6,273.6,186.7,276.5z"></path>
		<path class="st2" d="M160.9,268.3c-3.2,3.1-8.3,3.1-11.4-0.1c-3.1-3.2-3.1-8.3,0.1-11.4c3.2-3.1,8.3-3.1,11.4,0.1    C164.2,260.1,164.1,265.2,160.9,268.3z"></path>
		<path class="st2" d="M137.9,254.1c-3.3,3.2-8.5,3.2-11.7-0.1c-3.2-3.3-3.2-8.5,0.1-11.8c3.3-3.2,8.5-3.2,11.8,0.1    C141.2,245.7,141.2,250.9,137.9,254.1z"></path>
		<path class="st2" d="M119,234.9c-3.3,3.2-8.6,3.2-11.8-0.1c-3.2-3.3-3.2-8.6,0.1-11.8c3.3-3.2,8.6-3.2,11.8,0.1    C122.3,226.4,122.3,231.7,119,234.9z"></path>
		<path class="st2" d="M105.3,211.8c-3.2,3.2-8.4,3.1-11.6-0.1c-3.2-3.2-3.1-8.4,0.1-11.6c3.2-3.2,8.4-3.1,11.6,0.1    C108.5,203.4,108.5,208.6,105.3,211.8z"></path>
		<path class="st2" d="M97.5,186c-3,3-7.9,3-10.9-0.1c-3-3-2.9-7.9,0.1-10.9c3-3,7.9-3,10.9,0.1C100.6,178.1,100.6,183,97.5,186z"></path>
		<path class="st2" d="M96.2,159.1c-2.7,2.7-7.2,2.7-9.9-0.1c-2.7-2.8-2.7-7.2,0.1-9.9c2.8-2.7,7.2-2.7,9.9,0.1    C99,151.9,99,156.3,96.2,159.1z"></path>
		<path class="st2" d="M101.3,132.6c-2.3,2.3-6,2.3-8.3-0.1c-2.3-2.3-2.3-6.1,0.1-8.3c2.3-2.3,6-2.3,8.3,0.1    C103.7,126.6,103.7,130.3,101.3,132.6z"></path>
		<path class="st2" d="M112.7,108.1c-1.7,1.7-4.6,1.7-6.3-0.1c-1.7-1.7-1.7-4.6,0.1-6.3c1.7-1.7,4.6-1.7,6.3,0.1    C114.5,103.6,114.4,106.4,112.7,108.1z"></path>
		<path class="st2" d="M129.6,87.1c-0.9,0.9-2.4,0.9-3.4,0c-0.9-0.9-0.9-2.4,0-3.3c0.9-0.9,2.4-0.9,3.4,0    C130.6,84.7,130.5,86.2,129.6,87.1z"></path>
	</g>
	<g>
		<path class="st0" d="M236.2,291.7c-1,0.4-2.1-0.2-2.5-1.2c-0.4-1,0.2-2.1,1.2-2.5c1-0.4,2.1,0.2,2.5,1.2    C237.8,290.2,237.2,291.3,236.2,291.7z"></path>
		<path class="st0" d="M206.9,298.3c-2.3,0.8-4.8-0.4-5.6-2.6c-0.8-2.3,0.4-4.8,2.6-5.6c2.3-0.8,4.8,0.4,5.6,2.6    C210.4,295,209.2,297.5,206.9,298.3z"></path>
		<path class="st0" d="M176.9,297.6c-3.2,1.1-6.6-0.5-7.8-3.7c-1.1-3.2,0.5-6.6,3.7-7.8c3.2-1.1,6.6,0.5,7.8,3.7    C181.7,293,180.1,296.5,176.9,297.6z"></path>
		<path class="st0" d="M147.9,289.8c-3.9,1.4-8.1-0.7-9.5-4.5c-1.4-3.9,0.6-8.1,4.5-9.5c3.9-1.4,8.1,0.7,9.5,4.5    C153.8,284.2,151.8,288.4,147.9,289.8z"></path>
		<path class="st0" d="M121.6,275.3c-4.3,1.5-9.1-0.7-10.6-5.1c-1.5-4.3,0.7-9.1,5.1-10.6c4.3-1.5,9.1,0.7,10.7,5.1    C128.3,269,126,273.7,121.6,275.3z"></path>
		<path class="st0" d="M99.6,254.9c-4.7,1.7-9.8-0.8-11.4-5.4c-1.7-4.7,0.8-9.8,5.4-11.4c4.7-1.7,9.8,0.8,11.4,5.4    C106.7,248.1,104.3,253.2,99.6,254.9z"></path>
		<path class="st0" d="M83.1,229.8c-4.8,1.7-10.1-0.8-11.8-5.6c-1.7-4.8,0.8-10.1,5.6-11.8c4.8-1.7,10.1,0.8,11.8,5.6    C90.4,222.8,87.9,228.1,83.1,229.8z"></path>
		<path class="st0" d="M73.1,201.6c-4.8,1.7-10.1-0.8-11.8-5.6c-1.7-4.8,0.8-10.1,5.6-11.9c4.8-1.7,10.1,0.8,11.8,5.6    C80.4,194.6,77.9,199.9,73.1,201.6z"></path>
		<path class="st0" d="M70.1,171.8c-4.7,1.7-9.9-0.8-11.6-5.5c-1.7-4.7,0.8-9.9,5.5-11.6c4.7-1.7,9.9,0.8,11.6,5.5    C77.3,164.9,74.8,170.1,70.1,171.8z"></path>
		<path class="st0" d="M74.4,142.2c-4.5,1.6-9.4-0.8-11-5.2c-1.6-4.5,0.7-9.4,5.2-11c4.5-1.6,9.4,0.8,11,5.2    C81.2,135.7,78.9,140.6,74.4,142.2z"></path>
		<path class="st0" d="M85.7,114.5c-4,1.4-8.5-0.7-9.9-4.7c-1.4-4,0.7-8.5,4.7-9.9c4-1.4,8.5,0.7,9.9,4.7    C91.9,108.6,89.7,113.1,85.7,114.5z"></path>
		<path class="st0" d="M103.3,90.3c-3.4,1.2-7.2-0.6-8.4-4c-1.2-3.4,0.6-7.1,4-8.4c3.4-1.2,7.1,0.6,8.4,4    C108.5,85.3,106.7,89.1,103.3,90.3z"></path>
		<path class="st0" d="M126.2,70.9c-2.6,0.9-5.4-0.4-6.3-3c-0.9-2.6,0.4-5.4,3-6.3c2.6-0.9,5.4,0.4,6.3,3    C130.1,67.2,128.8,70,126.2,70.9z"></path>
		<path class="st0" d="M153.1,57.7c-1.4,0.5-2.9-0.2-3.4-1.6c-0.5-1.4,0.2-2.9,1.6-3.4c1.4-0.5,2.9,0.2,3.4,1.6    C155.2,55.7,154.5,57.2,153.1,57.7z"></path>
	</g>
	<g>
		<path class="st1" d="M164.4,313.8c-1.2-0.1-2.1-1.2-1.9-2.3c0.1-1.2,1.2-2.1,2.3-1.9c1.2,0.1,2.1,1.2,1.9,2.4    C166.6,313.1,165.6,313.9,164.4,313.8z"></path>
		<path class="st1" d="M131.8,306.7c-2.7-0.3-4.6-2.6-4.4-5.3c0.3-2.7,2.6-4.6,5.3-4.4c2.7,0.3,4.6,2.6,4.4,5.3    C136.8,305,134.5,306.9,131.8,306.7z"></path>
		<path class="st1" d="M101.9,291.9c-3.7-0.4-6.4-3.7-6.1-7.4c0.4-3.7,3.7-6.4,7.4-6.1c3.7,0.4,6.4,3.6,6.1,7.4    C108.9,289.6,105.6,292.3,101.9,291.9z"></path>
		<path class="st1" d="M76.4,270.4c-4.5-0.4-7.9-4.5-7.4-9c0.4-4.5,4.5-7.9,9-7.4c4.5,0.4,7.9,4.5,7.4,9    C85,267.5,80.9,270.9,76.4,270.4z"></path>
		<path class="st1" d="M56.7,243.5c-5.1-0.5-8.8-5-8.3-10.1c0.5-5.1,5-8.8,10.1-8.3c5.1,0.5,8.8,5,8.3,10.1    C66.4,240.2,61.8,244,56.7,243.5z"></path>
		<path class="st1" d="M44.1,212.6c-5.5-0.5-9.5-5.4-9-10.9c0.5-5.5,5.4-9.5,10.8-9c5.5,0.5,9.5,5.4,9,10.8    C54.4,209.1,49.6,213.1,44.1,212.6z"></path>
		<path class="st1" d="M39.3,179.6c-5.6-0.5-9.8-5.6-9.2-11.2c0.5-5.6,5.6-9.8,11.2-9.2c5.6,0.5,9.8,5.5,9.2,11.2    C49.9,176,44.9,180.1,39.3,179.6z"></path>
		<path class="st1" d="M42.4,146.4c-5.7-0.5-9.8-5.6-9.3-11.2c0.5-5.7,5.6-9.8,11.3-9.3c5.7,0.5,9.8,5.6,9.3,11.2    C53.1,142.8,48.1,147,42.4,146.4z"></path>
		<path class="st1" d="M53.4,115.1c-5.6-0.5-9.6-5.5-9.1-11c0.5-5.6,5.5-9.6,11-9.1c5.6,0.5,9.6,5.5,9.1,11    C63.9,111.5,59,115.6,53.4,115.1z"></path>
		<path class="st1" d="M71.7,87.3c-5.3-0.5-9.1-5.2-8.6-10.4c0.5-5.2,5.2-9.1,10.4-8.6c5.2,0.5,9.1,5.2,8.6,10.4    C81.6,83.9,76.9,87.8,71.7,87.3z"></path>
		<path class="st1" d="M96,64.7c-4.7-0.5-8.2-4.7-7.8-9.4c0.5-4.8,4.7-8.2,9.4-7.8c4.7,0.4,8.2,4.7,7.8,9.4    C105,61.6,100.8,65.1,96,64.7z"></path>
		<path class="st1" d="M125.1,48.5c-4-0.4-6.9-3.9-6.5-7.9c0.4-4,3.9-6.9,7.9-6.5c4,0.4,6.9,3.9,6.5,7.9    C132.7,46,129.1,48.9,125.1,48.5z"></path>
		<path class="st1" d="M157.3,39.8c-3-0.3-5.2-3-4.9-6c0.3-3,3-5.2,6-4.9c3,0.3,5.2,3,4.9,6C163,37.9,160.3,40.1,157.3,39.8z"></path>
		<path class="st1" d="M190.6,39.2c-1.6-0.2-2.8-1.6-2.6-3.2c0.2-1.6,1.6-2.8,3.2-2.6c1.6,0.2,2.8,1.6,2.6,3.2    C193.7,38.1,192.2,39.3,190.6,39.2z"></path>
	</g>
	<g>
		<path class="st3" d="M81.7,302.3c-1.1-0.7-1.5-2.1-0.9-3.3c0.7-1.1,2.1-1.5,3.3-0.9c1.1,0.7,1.5,2.1,0.8,3.3    C84.3,302.6,82.8,303,81.7,302.3z"></path>
		<path class="st3" d="M52.2,279.9c-2.6-1.5-3.4-4.8-1.9-7.4c1.5-2.6,4.8-3.4,7.4-1.9c2.6,1.5,3.4,4.8,1.9,7.4    C58.1,280.5,54.8,281.4,52.2,279.9z"></path>
		<path class="st3" d="M29,251c-3.6-2.1-4.8-6.7-2.7-10.3c2.1-3.6,6.7-4.8,10.3-2.7c3.6,2.1,4.8,6.7,2.7,10.3    C37.2,251.9,32.6,253.1,29,251z"></path>
		<path class="st3" d="M13.5,217.3c-4.4-2.6-5.8-8.2-3.3-12.5c2.6-4.4,8.2-5.8,12.5-3.3c4.4,2.6,5.8,8.2,3.3,12.5    S17.8,219.9,13.5,217.3z"></path>
		<path class="st3" d="M6.3,181c-4.9-2.9-6.5-9.2-3.7-14.1c2.9-4.9,9.2-6.5,14.1-3.7c4.9,2.9,6.5,9.2,3.7,14.1    C17.5,182.2,11.2,183.8,6.3,181z"></path>
		<path class="st3" d="M8.1,143.9c-5.3-3.1-7-9.9-3.9-15.1c3.1-5.3,9.9-7,15.1-3.9c5.3,3.1,7,9.9,3.9,15.1    C20.1,145.3,13.4,147,8.1,143.9z"></path>
		<path class="st3" d="M18.7,108.4c-5.4-3.2-7.2-10.2-4.1-15.6c3.2-5.4,10.2-7.2,15.6-4c5.4,3.2,7.2,10.2,4,15.6    C31.1,109.8,24.1,111.6,18.7,108.4z"></path>
		<path class="st3" d="M37.5,76.5c-5.5-3.2-7.3-10.2-4.1-15.7c3.2-5.5,10.2-7.3,15.7-4.1c5.5,3.2,7.3,10.2,4.1,15.7    C49.9,77.9,42.9,79.7,37.5,76.5z"></path>
		<path class="st3" d="M63.3,50.1c-5.4-3.1-7.1-10-4-15.4c3.1-5.4,10-7.1,15.4-4c5.3,3.1,7.1,10,4,15.4    C75.5,51.4,68.6,53.2,63.3,50.1z"></path>
		<path class="st3" d="M94.7,30.7c-5-3-6.7-9.5-3.8-14.5c3-5.1,9.5-6.7,14.5-3.8c5.1,3,6.7,9.5,3.8,14.5    C106.2,32,99.7,33.7,94.7,30.7z"></path>
		<path class="st3" d="M129.8,19.4c-4.6-2.7-6.1-8.6-3.4-13.1c2.7-4.6,8.6-6.1,13.1-3.4c4.6,2.7,6.1,8.6,3.4,13.1    C140.3,20.5,134.4,22.1,129.8,19.4z"></path>
		<path class="st3" d="M166.7,16.8c-3.8-2.3-5.1-7.2-2.9-11.1c2.3-3.8,7.2-5.1,11.1-2.9c3.8,2.3,5.1,7.2,2.9,11.1    C175.5,17.8,170.6,19,166.7,16.8z"></path>
		<path class="st3" d="M203.2,23.1c-2.9-1.7-3.9-5.4-2.2-8.3c1.7-2.9,5.4-3.9,8.3-2.2c2.9,1.7,3.9,5.4,2.2,8.3    C209.8,23.9,206.1,24.8,203.2,23.1z"></path>
		<path class="st3" d="M237.1,38.1c-1.5-0.9-2.1-2.9-1.2-4.4c0.9-1.5,2.9-2.1,4.4-1.2c1.5,0.9,2.1,2.9,1.2,4.4    C240.6,38.5,238.6,39,237.1,38.1z"></path>
	</g>
</g>
<g>
	<path class="st4" d="M546.1,187.4c-0.2,0.4-0.5,0.7-0.7,0.9c-0.3,0.2-0.6,0.3-1,0.3c-0.4,0-0.8-0.2-1.3-0.5c-0.5-0.3-1-0.6-1.7-1   c-0.7-0.4-1.4-0.7-2.3-1c-0.9-0.3-1.9-0.5-3.1-0.5c-1.1,0-2,0.1-2.8,0.4c-0.8,0.3-1.5,0.6-2,1.1c-0.6,0.5-1,1-1.2,1.7   c-0.3,0.7-0.4,1.4-0.4,2.1c0,1,0.3,1.8,0.8,2.5c0.6,0.7,1.3,1.2,2.2,1.7c0.9,0.5,1.9,0.9,3.1,1.3s2.4,0.8,3.6,1.2   c1.2,0.4,2.4,0.9,3.6,1.5c1.2,0.6,2.2,1.3,3.1,2.1c0.9,0.8,1.6,1.9,2.2,3.1c0.6,1.2,0.8,2.7,0.8,4.5c0,1.9-0.3,3.7-1,5.4   c-0.7,1.7-1.6,3.1-2.8,4.4c-1.2,1.2-2.8,2.2-4.6,2.9c-1.8,0.7-3.9,1.1-6.2,1.1c-1.3,0-2.7-0.1-3.9-0.4c-1.3-0.3-2.5-0.6-3.7-1.1   c-1.2-0.5-2.3-1.1-3.4-1.8c-1-0.7-2-1.4-2.8-2.3l2.3-3.8c0.2-0.3,0.4-0.5,0.8-0.7c0.3-0.2,0.6-0.3,1-0.3c0.5,0,1,0.2,1.6,0.6   c0.6,0.4,1.2,0.8,2,1.3c0.8,0.5,1.7,0.9,2.7,1.3c1,0.4,2.3,0.6,3.7,0.6c2.2,0,3.9-0.5,5.2-1.6c1.2-1.1,1.8-2.6,1.8-4.6   c0-1.1-0.3-2-0.8-2.7c-0.6-0.7-1.3-1.3-2.2-1.8c-0.9-0.5-1.9-0.9-3.1-1.2c-1.2-0.3-2.3-0.7-3.5-1.1c-1.2-0.4-2.4-0.9-3.5-1.4   c-1.2-0.5-2.2-1.3-3.1-2.1c-0.9-0.9-1.6-2-2.2-3.3c-0.6-1.3-0.8-2.9-0.8-4.9c0-1.5,0.3-3,0.9-4.5c0.6-1.5,1.5-2.8,2.7-3.9   c1.2-1.1,2.6-2,4.3-2.7c1.7-0.7,3.7-1,5.9-1c2.5,0,4.8,0.4,6.9,1.2c2.1,0.8,3.9,1.9,5.3,3.3L546.1,187.4z"></path>
	<path class="st4" d="M624.7,200.9c0,3.1-0.5,6-1.5,8.6c-1,2.6-2.5,4.9-4.3,6.8c-1.9,1.9-4.1,3.4-6.7,4.5c-2.6,1.1-5.5,1.6-8.7,1.6   c-3.2,0-6.1-0.5-8.7-1.6c-2.6-1.1-4.9-2.6-6.7-4.5c-1.9-1.9-3.3-4.2-4.3-6.8c-1-2.6-1.5-5.5-1.5-8.6s0.5-6,1.5-8.6   c1-2.6,2.5-4.9,4.3-6.8c1.9-1.9,4.1-3.4,6.7-4.5s5.5-1.6,8.7-1.6c2.1,0,4.1,0.2,6,0.7c1.9,0.5,3.6,1.2,5.2,2.1s3,2,4.2,3.3   c1.2,1.3,2.3,2.7,3.2,4.3c0.9,1.6,1.5,3.3,2,5.2C624.5,196.8,624.7,198.8,624.7,200.9z M616.7,200.9c0-2.3-0.3-4.4-0.9-6.2   c-0.6-1.8-1.5-3.4-2.6-4.7c-1.1-1.3-2.5-2.3-4.2-2.9c-1.6-0.7-3.5-1-5.5-1c-2.1,0-3.9,0.3-5.5,1c-1.6,0.7-3,1.7-4.2,2.9   c-1.2,1.3-2,2.8-2.7,4.7c-0.6,1.8-0.9,3.9-0.9,6.2c0,2.3,0.3,4.4,0.9,6.2c0.6,1.8,1.5,3.4,2.7,4.7c1.2,1.3,2.5,2.3,4.2,2.9   c1.6,0.7,3.5,1,5.5,1c2.1,0,3.9-0.3,5.5-1c1.6-0.7,3-1.7,4.2-2.9c1.1-1.3,2-2.8,2.6-4.7C616.4,205.3,616.7,203.2,616.7,200.9z"></path>
	<path class="st4" d="M685.3,215.5v6.5h-24.6v-42.2h7.8v35.7H685.3z"></path>
	<path class="st4" d="M735.7,215.6c1.5,0,2.9-0.3,4.1-0.8c1.2-0.5,2.2-1.2,3-2.1c0.8-0.9,1.4-2,1.9-3.3c0.4-1.3,0.7-2.8,0.7-4.4   v-25.3h7.8V205c0,2.5-0.4,4.8-1.2,7c-0.8,2.1-2,4-3.5,5.5c-1.5,1.5-3.3,2.8-5.5,3.6c-2.1,0.9-4.6,1.3-7.3,1.3   c-2.7,0-5.1-0.4-7.3-1.3c-2.1-0.9-4-2.1-5.5-3.6c-1.5-1.5-2.7-3.4-3.5-5.5c-0.8-2.1-1.2-4.5-1.2-7v-25.3h7.8V205   c0,1.6,0.2,3.1,0.7,4.4c0.4,1.3,1.1,2.4,1.9,3.3c0.8,0.9,1.8,1.6,3,2.1C732.8,215.4,734.1,215.6,735.7,215.6z"></path>
	<path class="st4" d="M820.3,186.2h-12.7V222h-7.8v-35.8h-12.7v-6.5h33.1V186.2z"></path>
	<path class="st4" d="M862.7,222h-7.8v-42.2h7.8V222z"></path>
	<path class="st4" d="M941.2,200.9c0,3.1-0.5,6-1.5,8.6c-1,2.6-2.5,4.9-4.3,6.8c-1.9,1.9-4.1,3.4-6.7,4.5c-2.6,1.1-5.5,1.6-8.7,1.6   c-3.2,0-6.1-0.5-8.7-1.6c-2.6-1.1-4.9-2.6-6.7-4.5c-1.9-1.9-3.3-4.2-4.3-6.8c-1-2.6-1.5-5.5-1.5-8.6s0.5-6,1.5-8.6   c1-2.6,2.5-4.9,4.3-6.8c1.9-1.9,4.1-3.4,6.7-4.5s5.5-1.6,8.7-1.6c2.1,0,4.1,0.2,6,0.7c1.9,0.5,3.6,1.2,5.2,2.1s3,2,4.2,3.3   c1.2,1.3,2.3,2.7,3.2,4.3c0.9,1.6,1.5,3.3,2,5.2C941,196.8,941.2,198.8,941.2,200.9z M933.2,200.9c0-2.3-0.3-4.4-0.9-6.2   c-0.6-1.8-1.5-3.4-2.6-4.7c-1.1-1.3-2.5-2.3-4.2-2.9c-1.6-0.7-3.5-1-5.5-1c-2.1,0-3.9,0.3-5.5,1c-1.6,0.7-3,1.7-4.2,2.9   c-1.2,1.3-2,2.8-2.7,4.7c-0.6,1.8-0.9,3.9-0.9,6.2c0,2.3,0.3,4.4,0.9,6.2c0.6,1.8,1.5,3.4,2.7,4.7s2.5,2.3,4.2,2.9   c1.6,0.7,3.5,1,5.5,1c2.1,0,3.9-0.3,5.5-1c1.6-0.7,3-1.7,4.2-2.9c1.1-1.3,2-2.8,2.6-4.7C932.9,205.3,933.2,203.2,933.2,200.9z"></path>
	<path class="st4" d="M1012.5,179.8V222h-4c-0.6,0-1.1-0.1-1.6-0.3c-0.4-0.2-0.8-0.5-1.2-1l-21.9-28.1c0.1,1.3,0.2,2.5,0.2,3.6V222   h-6.9v-42.2h4.1c0.3,0,0.6,0,0.9,0c0.2,0,0.5,0.1,0.6,0.2c0.2,0.1,0.4,0.2,0.5,0.4c0.2,0.2,0.4,0.4,0.6,0.7l22,28.3   c-0.1-0.7-0.1-1.4-0.1-2c0-0.7-0.1-1.3-0.1-1.8v-25.7H1012.5z"></path>
	<path class="st4" d="M1073.3,187.4c-0.2,0.4-0.5,0.7-0.7,0.9c-0.3,0.2-0.6,0.3-1,0.3c-0.4,0-0.8-0.2-1.3-0.5c-0.5-0.3-1-0.6-1.7-1   c-0.7-0.4-1.4-0.7-2.3-1c-0.9-0.3-1.9-0.5-3.1-0.5c-1.1,0-2,0.1-2.8,0.4c-0.8,0.3-1.5,0.6-2,1.1c-0.6,0.5-1,1-1.2,1.7   c-0.3,0.7-0.4,1.4-0.4,2.1c0,1,0.3,1.8,0.8,2.5c0.6,0.7,1.3,1.2,2.2,1.7c0.9,0.5,1.9,0.9,3.1,1.3s2.4,0.8,3.6,1.2   c1.2,0.4,2.4,0.9,3.6,1.5c1.2,0.6,2.2,1.3,3.1,2.1c0.9,0.8,1.6,1.9,2.2,3.1c0.6,1.2,0.8,2.7,0.8,4.5c0,1.9-0.3,3.7-1,5.4   c-0.7,1.7-1.6,3.1-2.8,4.4c-1.2,1.2-2.8,2.2-4.6,2.9c-1.8,0.7-3.9,1.1-6.2,1.1c-1.3,0-2.7-0.1-3.9-0.4c-1.3-0.3-2.5-0.6-3.7-1.1   c-1.2-0.5-2.3-1.1-3.4-1.8c-1-0.7-2-1.4-2.8-2.3l2.3-3.8c0.2-0.3,0.4-0.5,0.8-0.7c0.3-0.2,0.6-0.3,1-0.3c0.5,0,1,0.2,1.6,0.6   c0.6,0.4,1.2,0.8,2,1.3c0.8,0.5,1.7,0.9,2.7,1.3c1,0.4,2.3,0.6,3.7,0.6c2.2,0,3.9-0.5,5.2-1.6c1.2-1.1,1.8-2.6,1.8-4.6   c0-1.1-0.3-2-0.8-2.7c-0.6-0.7-1.3-1.3-2.2-1.8c-0.9-0.5-1.9-0.9-3.1-1.2c-1.2-0.3-2.3-0.7-3.5-1.1c-1.2-0.4-2.4-0.9-3.5-1.4   c-1.2-0.5-2.2-1.3-3.1-2.1s-1.6-2-2.2-3.3c-0.6-1.3-0.8-2.9-0.8-4.9c0-1.5,0.3-3,0.9-4.5c0.6-1.5,1.5-2.8,2.7-3.9   c1.2-1.1,2.6-2,4.3-2.7c1.7-0.7,3.7-1,5.9-1c2.5,0,4.8,0.4,6.9,1.2c2.1,0.8,3.9,1.9,5.3,3.3L1073.3,187.4z"></path>
</g>
<path class="st0" d="M779.5,119.3c-1.6,0.2-3,0.8-4.2,1.8c-1.7,1.3-3.2,3.1-4.5,5.3l-0.6-3.5c-0.1-0.5-0.2-1-0.4-1.4  c-0.2-0.4-0.4-0.7-0.6-0.9c-0.3-0.2-0.6-0.4-1.1-0.5c-0.4-0.1-0.9-0.2-1.6-0.2H759v42h12.6v-25.5c0.8-1.7,1.7-3.1,2.8-4.1  c1.1-1,2.6-1.5,4.4-1.5c0.2,0,0.5,0,0.7,0c0.8,0.1,1.5,0.2,2.3,0.1c0.2,0,0.3,0,0.5-0.1c0.3-0.1,0.5-0.4,0.6-0.7  c0.1-0.3,0.2-0.6,0.2-0.9l0.8-9C782.8,119.7,781.7,119.1,779.5,119.3z"></path>
<path class="st0" d="M813,152.3c-0.2-0.2-0.5-0.3-0.9-0.3c-0.3,0-0.5,0-0.7,0.1c-0.2,0.1-0.4,0.2-0.6,0.3s-0.5,0.2-0.8,0.3  c-0.3,0.1-0.7,0.1-1.2,0.1c-0.9,0-1.6-0.3-2-1c-0.5-0.6-0.7-1.4-0.7-2.4v-20.9h10.4v-8.6H806v-12.3h-6.6c-1.5,0-2.4,0.6-2.8,1.9  l-2.5,10.3l-6,1.3v4.9c0,0.8,0.2,1.4,0.7,1.8c0.5,0.4,1,0.6,1.7,0.6h2.9v21.7c0,1.9,0.3,3.6,0.8,5.1c0.5,1.5,1.3,2.8,2.4,3.9  c1,1.1,2.3,1.9,3.8,2.5c1.5,0.6,3.3,0.9,5.3,0.9c2.2,0,4.3-0.3,6.3-0.9s3.8-1.5,5.5-2.7l-3.8-6C813.4,152.7,813.2,152.4,813,152.3z"></path>
</svg>